<svg width="22" height="23" viewBox="0 0 22 23" fill="none" xmlns="http://www.w3.org/2000/svg">
<path d="M15.935 0.68457H6.00199C4.44804 0.686687 2.95834 1.30499 1.85962 2.40389C0.760903 3.50279 0.142843 4.99257 0.140991 6.54651L0.140991 16.4784C0.142844 18.0325 0.761041 19.5224 1.85998 20.6214C2.95891 21.7203 4.44886 22.3385 6.00299 22.3403H15.935C17.4891 22.3385 18.9791 21.7203 20.078 20.6214C21.1769 19.5224 21.7951 18.0325 21.797 16.4784V6.54651C21.7951 4.99222 21.1768 3.50214 20.0777 2.40318C18.9785 1.30423 17.4883 0.686158 15.934 0.68457L15.935 0.68457ZM10.968 17.4344C9.79673 17.4344 8.65177 17.0871 7.67791 16.4364C6.70404 15.7856 5.945 14.8608 5.49678 13.7787C5.04856 12.6966 4.93128 11.5059 5.15978 10.3571C5.38828 9.2084 5.9523 8.15321 6.78051 7.32501C7.60871 6.49681 8.66391 5.9328 9.81267 5.7043C10.9614 5.47581 12.1521 5.59308 13.2342 6.0413C14.3163 6.48951 15.2412 7.24854 15.892 8.2224C16.5427 9.19626 16.89 10.3412 16.89 11.5125C16.8884 13.0826 16.264 14.5879 15.1537 15.6981C14.0435 16.8084 12.5381 17.4328 10.968 17.4344ZM17.032 6.9845C16.6859 6.9845 16.3475 6.88187 16.0597 6.68958C15.772 6.49729 15.5477 6.22398 15.4152 5.90421C15.2828 5.58444 15.2481 5.23258 15.3156 4.89312C15.3831 4.55365 15.5498 4.24184 15.7946 3.9971C16.0393 3.75236 16.3511 3.58569 16.6906 3.51816C17.0301 3.45064 17.3819 3.4853 17.7017 3.61775C18.0215 3.7502 18.2948 3.9745 18.4871 4.26228C18.6794 4.55007 18.782 4.88841 18.782 5.23452C18.7815 5.69848 18.5969 6.14329 18.2688 6.47136C17.9408 6.79943 17.496 6.98397 17.032 6.9845Z" fill="white"/>
<path d="M10.968 6.86035C10.0479 6.86035 9.14854 7.13319 8.38352 7.64436C7.61851 8.15554 7.02225 8.8821 6.67015 9.73216C6.31806 10.5822 6.22593 11.5176 6.40543 12.42C6.58493 13.3224 7.02798 14.1514 7.67857 14.802C8.32916 15.4526 9.15806 15.8957 10.0605 16.0752C10.9628 16.2547 11.8982 16.1625 12.7482 15.8104C13.5983 15.4583 14.3248 14.862 14.836 14.097C15.3472 13.332 15.62 12.4325 15.62 11.5124C15.6187 10.279 15.1281 9.09653 14.256 8.22438C13.3839 7.35223 12.2014 6.86168 10.968 6.86035Z" fill="white"/>
<path d="M17.032 4.75781C16.9371 4.75781 16.8443 4.78596 16.7653 4.83871C16.6864 4.89145 16.6249 4.96641 16.5885 5.05412C16.5522 5.14183 16.5427 5.23834 16.5612 5.33145C16.5797 5.42456 16.6254 5.51009 16.6926 5.57722C16.7597 5.64435 16.8453 5.69007 16.9384 5.70859C17.0315 5.72711 17.128 5.7176 17.2157 5.68127C17.3034 5.64494 17.3784 5.58342 17.4311 5.50449C17.4838 5.42555 17.512 5.33274 17.512 5.23781C17.5117 5.11059 17.4611 4.98865 17.3711 4.89869C17.2812 4.80873 17.1592 4.75808 17.032 4.75781Z" fill="white"/>
</svg>
