<svg width="22" height="22" viewBox="0 0 22 22" fill="none" xmlns="http://www.w3.org/2000/svg">
<path d="M5.48899 7.47266H1.23898C1.14827 7.47266 1.06128 7.50868 0.997144 7.57282C0.933006 7.63696 0.896974 7.72394 0.896974 7.81465V21.4705C0.896842 21.5154 0.905598 21.56 0.922739 21.6015C0.939879 21.6431 0.965065 21.6808 0.996849 21.7126C1.02863 21.7444 1.06639 21.7696 1.10794 21.7867C1.14949 21.8039 1.19403 21.8126 1.23898 21.8125H5.48899C5.53394 21.8126 5.57847 21.8039 5.62003 21.7867C5.66158 21.7696 5.69933 21.7444 5.73112 21.7126C5.7629 21.6808 5.78809 21.6431 5.80523 21.6015C5.82237 21.56 5.83112 21.5154 5.83099 21.4705V7.81465C5.83099 7.72394 5.79496 7.63696 5.73082 7.57282C5.66669 7.50868 5.5797 7.47266 5.48899 7.47266Z" fill="#fff"/>
<path d="M3.365 0.683594C2.81122 0.683594 2.26986 0.847811 1.80941 1.15548C1.34895 1.46315 0.990066 1.90045 0.778141 2.41208C0.566216 2.92371 0.510766 3.4867 0.618805 4.02985C0.726844 4.57299 0.993518 5.07191 1.3851 5.46349C1.77669 5.85508 2.2756 6.12175 2.81875 6.22979C3.3619 6.33783 3.92488 6.28238 4.43652 6.07046C4.94815 5.85853 5.38545 5.49965 5.69312 5.03919C6.00079 4.57873 6.165 4.03738 6.165 3.48359C6.16316 2.74156 5.86756 2.03044 5.34286 1.50574C4.81816 0.981035 4.10704 0.685442 3.365 0.683594Z" fill="#fff"/>
<path d="M16.301 7.13188C15.6034 7.11778 14.9107 7.25002 14.2673 7.5201C13.624 7.79017 13.0444 8.19208 12.566 8.69989V7.81288C12.566 7.72218 12.53 7.63519 12.4658 7.57105C12.4017 7.50692 12.3147 7.47088 12.224 7.47088H8.15297C8.06227 7.47088 7.97528 7.50692 7.91114 7.57105C7.847 7.63519 7.81098 7.72218 7.81098 7.81288V21.471C7.81084 21.5159 7.8196 21.5605 7.83674 21.602C7.85388 21.6436 7.87906 21.6813 7.91084 21.7131C7.94263 21.7449 7.98038 21.7701 8.02194 21.7872C8.06349 21.8044 8.10802 21.8131 8.15297 21.813H12.395C12.4399 21.8131 12.4845 21.8044 12.526 21.7872C12.5676 21.7701 12.6053 21.7449 12.6371 21.7131C12.6689 21.6813 12.6941 21.6436 12.7112 21.602C12.7284 21.5605 12.7371 21.5159 12.737 21.471V14.7139C12.737 12.4369 13.355 11.5499 14.943 11.5499C16.672 11.5499 16.809 12.9719 16.809 14.8309V21.471C16.8089 21.5159 16.8176 21.5605 16.8348 21.602C16.8519 21.6436 16.8771 21.6813 16.9089 21.7131C16.9407 21.7449 16.9784 21.7701 17.02 21.7872C17.0615 21.8044 17.1061 21.8131 17.151 21.813H21.394C21.439 21.8131 21.4835 21.8044 21.5251 21.7872C21.5666 21.7701 21.6044 21.7449 21.6361 21.7131C21.6679 21.6813 21.6931 21.6436 21.7103 21.602C21.7274 21.5605 21.7362 21.5159 21.736 21.471V13.9799C21.736 10.5929 21.089 7.13188 16.301 7.13188Z" fill="#fff"/>
</svg>
