<svg width="25" height="18" viewBox="0 0 25 18" fill="none" xmlns="http://www.w3.org/2000/svg">
<path d="M23.78 2.16764C22.892 1.11164 21.253 0.681641 18.122 0.681641H6.75701C3.55701 0.681641 1.88701 1.13964 1.00301 2.26364C0.140015 3.36264 0.140015 4.97664 0.140015 7.21064V11.4676C0.140015 15.7966 1.16301 17.9936 6.75701 17.9936H18.122C20.837 17.9936 22.342 17.6136 23.315 16.6826C24.315 15.7276 24.739 14.1676 24.739 11.4676V7.21064C24.74 4.85464 24.672 3.23064 23.78 2.16764ZM15.933 9.92564L10.772 12.6256C10.6513 12.6889 10.5164 12.7199 10.3802 12.7158C10.2441 12.7118 10.1112 12.6727 9.99455 12.6023C9.87788 12.532 9.7813 12.4328 9.71412 12.3142C9.64694 12.1957 9.61143 12.0619 9.61101 11.9256V6.54564C9.61161 6.40968 9.64715 6.27616 9.71423 6.1579C9.7813 6.03964 9.87765 5.94061 9.99403 5.87032C10.1104 5.80003 10.2429 5.76085 10.3788 5.75652C10.5147 5.7522 10.6494 5.78289 10.77 5.84564L15.931 8.52564C16.06 8.59252 16.1681 8.69355 16.2436 8.8177C16.3191 8.94185 16.359 9.08435 16.359 9.22964C16.359 9.37493 16.3191 9.51743 16.2436 9.64158C16.1681 9.76573 16.06 9.86676 15.931 9.93364L15.933 9.92564Z" fill="white"/>
</svg>
